<?xml version="1.0" encoding="utf-8"?>
<!-- Generator: Adobe Illustrator 23.0.6, SVG Export Plug-In . SVG Version: 6.00 Build 0)  -->
<svg version="1.1" id="Слой_1" xmlns="http://www.w3.org/2000/svg" xmlns:xlink="http://www.w3.org/1999/xlink" x="0px" y="0px"
	 viewBox="0 0 512 512" style="enable-background:new 0 0 512 512;" xml:space="preserve">
<style type="text/css">
	.st0{fill:url(#SVGID_1_);}
	.st1{fill:#FFFFFF;}
</style>
<linearGradient id="SVGID_1_" gradientUnits="userSpaceOnUse" x1="23.9293" y1="12238.2168" x2="488.0707" y2="12021.7832" gradientTransform="matrix(1 0 0 1 0 -11874)">
	<stop  offset="0" style="stop-color:#B326FF"/>
	<stop  offset="1" style="stop-color:#5F26FF"/>
</linearGradient>
<path class="st0" d="M512,256c0,141.4-114.6,256-256,256S0,397.4,0,256S114.6,0,256,0S512,114.6,512,256z"/>
<path class="st1" d="M321.2,441c-3.8,0-7.6-1.4-10.5-4.3l-174.3-170c-2.9-2.8-4.5-6.7-4.5-10.7s1.6-7.9,4.5-10.7l174.3-170
	c5.9-5.8,15.4-5.7,21.2,0.3c5.8,5.9,5.7,15.4-0.3,21.2L168.3,256l163.3,159.3c5.9,5.8,6.1,15.3,0.3,21.2
	C329,439.5,325.1,441,321.2,441z"/>
</svg>
