<svg width="62" height="36" viewBox="0 0 62 36" fill="none" xmlns="http://www.w3.org/2000/svg">
<path d="M60.9946 15.081C57.5149 10.6195 53.0077 6.92919 47.9604 4.40924C42.8081 1.83685 37.2653 0.502156 31.4791 0.432164C31.3197 0.427804 30.6799 0.427804 30.5205 0.432164C24.7344 0.502277 19.1915 1.83685 14.0392 4.40924C8.99192 6.92919 4.48494 10.6194 1.0052 15.081C-0.335309 16.7996 -0.335309 19.2003 1.0052 20.919C4.48482 25.3805 8.99192 29.0708 14.0392 31.5907C19.1915 34.1631 24.7343 35.4978 30.5205 35.5678C30.6799 35.5722 31.3197 35.5722 31.4791 35.5678C37.2652 35.4977 42.8081 34.1631 47.9604 31.5907C53.0077 29.0708 57.5148 25.3806 60.9946 20.919C62.3351 19.2001 62.3351 16.7996 60.9946 15.081ZM15.166 29.3342C10.453 26.9811 6.24407 23.5347 2.99404 19.3678C2.36592 18.5624 2.36592 17.4376 2.99404 16.6322C6.24394 12.4652 10.4529 9.0189 15.166 6.66581C16.5046 5.99762 17.8715 5.41976 19.2637 4.93055C15.682 8.15018 13.4254 12.8162 13.4254 17.9999C13.4254 23.1839 15.6821 27.8503 19.2642 31.0698C17.8719 30.5806 16.5047 30.0025 15.166 29.3342ZM30.9999 33.0522C22.6999 33.0522 15.9475 26.2998 15.9475 17.9998C15.9475 9.69981 22.6999 2.94752 30.9999 2.94752C39.2999 2.94752 46.0523 9.69993 46.0523 17.9999C46.0523 26.2999 39.2999 33.0522 30.9999 33.0522ZM59.0058 19.3677C55.7559 23.5346 51.547 26.9809 46.8339 29.334C45.4969 30.0015 44.1308 30.5768 42.7403 31.0656C46.3196 27.846 48.5745 23.1815 48.5745 17.9998C48.5745 12.8153 46.3173 8.14873 42.735 4.92909C44.1276 5.41843 45.4951 5.99701 46.834 6.66557C51.547 9.01866 55.7559 12.465 59.006 16.6319C59.634 17.4374 59.634 18.5623 59.0058 19.3677Z" fill="white"/>
<path d="M30.9999 11.5583C27.448 11.5583 24.5583 14.4479 24.5583 17.9998C24.5583 21.5518 27.448 24.4414 30.9999 24.4414C34.5518 24.4414 37.4415 21.5518 37.4415 17.9998C37.4416 14.4479 34.552 11.5583 30.9999 11.5583ZM30.9999 21.9194C28.8388 21.9194 27.0804 20.1612 27.0804 17.9998C27.0804 15.8386 28.8385 14.0804 30.9999 14.0804C33.1611 14.0804 34.9194 15.8386 34.9194 17.9998C34.9195 20.1612 33.1611 21.9194 30.9999 21.9194Z" fill="white"/>
</svg>
