<svg width="55" height="55" viewBox="0 0 55 55" fill="none" xmlns="http://www.w3.org/2000/svg">
<path d="M50.2176 41.4092H4.78125V47.0001H50.2176V41.4092Z" fill="white"/>
<path d="M47.9977 25.9953H7.58457L3.85547 18.4742L4.7227 17.0983C7.93147 12.0536 14.5224 6 27.7911 6C42.1872 6 48.6914 13.3377 51.2064 17.7404L52.0737 19.2079L47.9977 25.9953ZM10.7066 20.492H45.1358L45.9163 19.2079C43.1411 15.4473 37.851 11.5033 27.7911 11.5033C17.9914 11.5033 12.7013 15.2639 9.9261 18.8411L10.7066 20.492Z" fill="white"/>
<path d="M49.506 36.8174L47.1419 34.8913C46.4251 34.2492 45.2604 34.0658 44.2749 34.4327L37.5556 36.8174C34.42 37.9181 30.9259 37.0926 28.8653 34.7996C28.1486 33.9741 26.6256 33.7906 25.5505 34.341L21.4293 36.5423C19.2791 37.6429 16.681 37.8264 14.4412 36.9092L9.96171 35.1664C8.97621 34.7996 7.72194 34.983 7.00522 35.6251L5.58363 36.8174L2 32.69L3.4216 31.4976C5.57177 29.4797 8.97621 28.9294 11.8431 30.03L16.3226 31.7727C17.129 32.0479 18.1145 32.0479 18.8312 31.681L22.9524 29.4797C26.1776 27.737 30.2988 28.379 32.7177 31.039C33.3449 31.7727 34.6887 32.0479 35.6742 31.5893L42.3935 29.2045C45.2604 28.1956 48.4857 28.7459 50.6359 30.7638L53 32.69L49.506 36.8174Z" fill="white"/>
</svg>
