<svg width="42" height="38" viewBox="0 0 42 38" fill="none" xmlns="http://www.w3.org/2000/svg">
<ellipse cx="20.8231" cy="19" rx="20.3717" ry="19" fill="url(#paint0_linear)"/>
<path d="M14.1231 19.7999H9.63038L12.2784 16.8362C12.5823 16.4737 12.5659 15.9041 12.2419 15.5641C11.9324 15.2393 11.4507 15.2395 11.1414 15.5646L7.12066 20.0645C6.89115 20.322 6.82264 20.7087 6.94698 21.0446C6.98717 21.1539 7.04617 21.2534 7.12066 21.3371L11.1414 25.8371C11.4608 26.1824 11.9699 26.1725 12.2784 25.815C12.5794 25.4662 12.5794 24.9133 12.2784 24.5645L9.63034 21.5999H14.1231V19.7999Z" fill="white"/>
<path d="M26.9883 9H16.5345C15.2022 9 14.1221 10.2088 14.1221 11.7V19.7999H22.9676C23.4118 19.7999 23.7718 20.2029 23.7718 20.7C23.7718 21.197 23.4118 21.6 22.9676 21.6H14.1221V29.6999C14.1221 31.1911 15.2021 32.3999 16.5345 32.3999H26.9883C28.3207 32.3999 29.4007 31.1911 29.4007 29.6999V11.7C29.4007 10.2088 28.3207 9 26.9883 9Z" fill="white"/>
<defs>
<linearGradient id="paint0_linear" x1="36.3699" y1="-2.58025e-07" x2="10.9439" y2="36.6982" gradientUnits="userSpaceOnUse">
<stop stop-color="#5F26FF"/>
<stop offset="1" stop-color="#B326FF"/>
</linearGradient>
</defs>
</svg>
