<svg width="78" height="78" viewBox="0 0 78 78" fill="none" xmlns="http://www.w3.org/2000/svg">
<path d="M78 39C78 60.5414 60.5414 78 39 78C17.4586 78 0 60.5414 0 39C0 17.4586 17.4586 0 39 0C60.5414 0 78 17.4586 78 39Z" fill="url(#paint0_linear)"/>
<path d="M21.7433 37.2165C20.7522 38.1882 20.7522 39.8115 21.7433 40.7856L44.6103 63.2618C45.6141 64.2458 47.2419 64.2458 48.2431 63.2618C49.2469 62.2777 49.2469 60.6793 48.2431 59.6952L27.1926 38.9999L48.2457 18.3071C49.2494 17.3206 49.2494 15.7247 48.2457 14.7381C47.2419 13.754 45.6141 13.754 44.6129 14.7381L21.7433 37.2165Z" fill="white"/>
<defs>
<linearGradient id="paint0_linear" x1="3.64548" y1="55.4862" x2="74.3545" y2="22.5138" gradientUnits="userSpaceOnUse">
<stop stop-color="#B326FF"/>
<stop offset="1" stop-color="#5F26FF"/>
</linearGradient>
</defs>
</svg>
